<svg width="18" height="18" viewBox="0 0 18 18" fill="none" xmlns="http://www.w3.org/2000/svg">
<g clip-path="url(#clip0_3_16765)">
<path d="M13.9958 11.1227L12.1576 10.9128C11.7162 10.8622 11.282 11.0141 10.9708 11.3253L9.63924 12.6569C7.59123 11.6148 5.91229 9.94308 4.8702 7.88782L6.209 6.54901C6.52018 6.23782 6.67216 5.80361 6.6215 5.36217L6.41163 3.53849C6.32479 2.80757 5.70966 2.25757 4.97151 2.25757H3.71955C2.90179 2.25757 2.22153 2.93783 2.27219 3.75559C2.65574 9.93584 7.59847 14.8714 13.7714 15.2549C14.5892 15.3056 15.2695 14.6253 15.2695 13.8075V12.5556C15.2767 11.8247 14.7267 11.2095 13.9958 11.1227Z" fill="#212121"/>
</g>
<defs>
<clipPath id="clip0_3_16765">
<rect width="18" height="18" fill="white"/>
</clipPath>
</defs>
</svg>
